<?xml version="1.0" encoding="utf-8"?>
<!-- Generator: Adobe Illustrator 18.1.1, SVG Export Plug-In . SVG Version: 6.00 Build 0)  -->
<svg version="1.1" id="Layer_1" xmlns="http://www.w3.org/2000/svg" xmlns:xlink="http://www.w3.org/1999/xlink" x="0px" y="0px"
	 viewBox="-429 231 100 100" enable-background="new -429 231 100 100" xml:space="preserve">
<g>
	<path fill="#A4C2DB" d="M-409.9,275.1c-0.8,0.2-0.5,1.4,0.3,1.2c0.6-0.1,1.6,0.5,2.4,1.9c-0.2,0.2-0.3,0.7-0.1,1.1
		c0.2,0.7,0.8,1.3,1.4,1.3c1.2-0.1,0.4-1.8,0.4-1.9C-406.4,276.5-408.1,274.6-409.9,275.1z"/>
	<path fill="#A4C2DB" d="M-360.3,271.7c-1.2-0.4-2.5,0-3.6,0.7c0.4-2.5,2.1-4.2,2.1-7.3c0-0.6,0-1.2,0-1.9c-0.1-4.8-0.6-9.3-2-13.1
		c-1.6-4.4-4.5-8-9.4-10.1c-2.3-1-5-1.6-8.2-1.9c-1.2-0.1-2.5-0.2-3.9-0.2h-0.2c-6.2,0-10.9,1.2-14.4,3.3c-3.6,2.2-5.8,5.3-7.2,9
		c-1.6,4.3-2,9.5-2,14.8v0.1c0,3.1,1.7,4.8,2.1,7.2c-1.1-0.7-2.3-1-3.5-0.7l-0.1,0c-2.9,0.9-2.6,5.4-0.9,8.6l0,0.1
		c2.2,4,3.9,6,6.5,5.5c0.8,5.9,3,9.8,5.8,12.4c0.8,2.7,1.4,5.5,2.4,9.5l0,0.1c0.1,0.3,2,3.6,11.2,3.6s11-3.3,11.1-3.6l0-0.1
		c1.1-4,1.7-6.8,2.5-9.5c2.8-2.6,4.9-6.6,5.7-12.4c2.6,0.6,4.4-1.4,6.6-5.5C-357.8,277.2-357.4,272.7-360.3,271.7z M-375.4,307.3
		c-1.7,2.5-7.7,2.8-9.9,2.8c-2.2,0-8.3-0.4-10-2.8c-0.8-3.2-1.4-5.6-2-7.8c2.2,1.5,4.6,2.3,7.2,2.8c0.3,0.1,0.5,0.1,0.7,0.2
		c1.5,0.7,2.3,0.9,4.1,0.9c1.8,0,2.7-0.2,3.3-0.5c0.5-0.2,0.9-0.5,1.4-0.6c2.6-0.4,5-1.3,7.2-2.8
		C-374,301.7-374.6,304.1-375.4,307.3z M-360.6,279.8c-2.4,4.4-3.8,5.3-5.4,4.8c-0.1,0-0.1,0-0.2,0c-0.3-0.3-1-0.2-1,0.4
		c-1.3,11-7.2,15.1-13.7,16.2c-2,0.3-1.3,1.1-4.6,1.1c-3.2,0-2.6-0.8-4.6-1.1c-6.5-1.1-12.4-5.2-13.7-16.2c-0.1-0.6-0.7-0.7-1.1-0.4
		l-0.1,0c-1.7,0.5-3.1-0.4-5.4-4.8l0-0.1c-1.8-3.3-1.3-6.4,0.2-6.9c1-0.3,2.3,0.2,3.5,1.5c0.5,1.5,1.1,2.7,1.5,3.5
		c0.3,0.6,0.6,0.9,0.6,0.9c0.5,0.7,1.4,0.1,1.1-0.6c-0.2-0.3-0.3-0.7-0.5-1c-1.6-3.7-1-5.6-0.3-7.6c1.3-3.4,1.9-5.4,1.5-9.2
		c-0.3-3,0.8-3.3,3.8-2.5c1.3,0.3,2.8,0.8,4.3,1.4c1.8,0.6,3.6,1.2,5.5,1.6c1.2,0.2,2.4,0.4,3.6,0.4c2,0,4-0.4,6-1
		c2.4-0.7,7.2-2.6,9.5-2.7c1.2,0,1.9,0.4,1.8,2.6c-0.3,3.9-0.1,5.4,1.3,9.1c0.5,1.4,1,2.6,0.9,4.2c0,0.8-0.2,1.7-0.6,2.8
		c-0.2,0.6-0.5,1.3-0.9,2.1c-0.4,0.8,0.5,1.3,1.1,0.6c0,0,0.6-0.8,1.3-2.2c0.3-0.6,0.5-1.3,0.8-2c1.2-1.4,2.6-1.9,3.7-1.6
		C-359.2,273.4-358.8,276.4-360.6,279.8z"/>
	<path fill="#A4C2DB" d="M-360.9,275.1c-1.7-0.4-3.4,1.5-4.3,3.6c-0.1,0.2-0.8,1.9,0.4,1.9c0.5,0,1.1-0.6,1.4-1.3
		c0.1-0.5,0.1-0.9-0.1-1.1c0.8-1.4,1.8-2.1,2.4-1.9C-360.4,276.4-360.1,275.2-360.9,275.1z"/>
</g>
</svg>
