<?xml version="1.0" encoding="utf-8"?>
<!-- Generator: Adobe Illustrator 18.1.1, SVG Export Plug-In . SVG Version: 6.00 Build 0)  -->
<svg version="1.1" id="Your_Icon" xmlns="http://www.w3.org/2000/svg" xmlns:xlink="http://www.w3.org/1999/xlink" x="0px" y="0px"
	 viewBox="-264.2 202.5 70.5 81.3" enable-background="new -264.2 202.5 70.5 81.3" xml:space="preserve">
<circle fill="#FEC77C" cx="-246.7" cy="211.6" r="6.7"/>
<path fill="#FEC77C" d="M-242,220h-8.9c-4.1,0-7.4,3.5-7.4,7.8l-3.4,19c0,1.4,1,2.5,2.4,3.4c0.6,0.4,1.9-0.2,2.2-0.9
	c0.4-1,2.6-17.5,3.3-17.3c0.5,0.2-0.4,20.6,0.1,20.8v22.5c0,3.4,2.7,6.2,5.9,6.2h3c3.3,0,5.9-2.8,5.9-6.2l0.1-44.1
	c0.8-0.4,2.2,18,3.2,18.6c0.9,0.6,0.9,0.6,1.8,0.4c1.7-0.4,2.5-2.2,2.5-3.7l-3-18.9C-234.6,223.5-238,220-242,220z"/>
<path fill="#FEC77C" d="M-195.8,242.7l-5.4-16.9c-0.5-1.9-2.2-5.4-6.3-5.4h-9.3c-4.1,0-5.8,3.4-6.3,5.4l-5.4,16.9
	c-1,3.6,3.5,5,4.6,1.6l4.9-15.6h1.2c0,0-3.4,8.2-3.6,18.1c-0.1,6.3,3.5,32.3,3.5,32.3c0.2,3.3,11.1,3.3,11.4,0c0,0,3.7-26,3.5-32.3
	c-0.2-10-3.6-18.1-3.6-18.1h1.2l4.9,15.6C-199.3,247.8-194.7,246.4-195.8,242.7z"/>
<circle fill="#FEC77C" cx="-212.2" cy="213.6" r="5.8"/>
</svg>
