<?xml version="1.0" encoding="utf-8"?>
<!-- Generator: Adobe Illustrator 18.1.1, SVG Export Plug-In . SVG Version: 6.00 Build 0)  -->
<svg version="1.1" id="Layer_1" xmlns="http://www.w3.org/2000/svg" xmlns:xlink="http://www.w3.org/1999/xlink" x="0px" y="0px"
	 viewBox="-429 231 100 100" enable-background="new -429 231 100 100" xml:space="preserve">
<g>
	<path fill="#A4C2DB" d="M-353,287.7c-1.1-3.7-3.9-5.3-3.9-9c0-1,0.5-2.7,1.1-3.9l0,0l0,0l0,0c1-2,2.4-6.4-0.3-7.6V267
		c0-6.9-0.8-13.6-2.3-19l0,0c-1-3.7-2.7-6.2-4.7-6.2c-0.2,0-0.4,0-0.6,0.1c0,0.2,0,0.3,0,0.5c0.3,5.5-1.1,10.1-3.8,13.5
		c2.1-0.3,3.2,0.9,3.5,2.6c0.3,1.8,0.6,3.1,1,4.2c1.1,3.2,2,3.8,1.5,7.6c-0.1,0.4-0.2,0.7-0.3,0.9l0,0.1c-0.2,0.7,0.7,1,1,0.4l0-0.1
		l0.1-0.2l0-0.1l0,0c0-0.1,0.1-0.3,0.2-0.4c0.1-0.2,0.1-0.3,0.2-0.4l0.1-0.2c0.1-0.2,0.3-0.5,0.4-0.7c1.4-2.1,4.1-2.2,4.1,0.8
		c0,2.8-2,6.2-4.4,7.6c-0.3,0.2-2,0.7-2.1,1c-2,5.6-3.5,8.1-5.1,9.7c-1.9,1.7-4.6,2.7-6.8,3.9c-1.6,0.8-1.4,0.9-3.6,0.9
		c-1,0-2.1,0-2.9-0.5c-2-1.2-4.4-2-6.4-3.4c-0.1-0.1-0.2-0.1-0.2-0.2c-0.3-0.2-0.6-0.5-0.9-0.8c-1.7-1.6-3.2-4.1-5.1-9.7
		c0-0.1-0.3-0.3-0.4-0.4c-2-0.4-3.9-2.4-4.8-4.1c-0.7-1.2-2.4-5.7,0-6.4c1.8-0.5,3.1,1.5,3.7,2.9c0.1,0.3,0.2,0.5,0.2,0.6l0,0.1
		c0.2,0.7,1.2,0.4,1-0.3c0-0.1-0.1-0.2-0.1-0.3c-0.2-0.5-0.3-1.1-0.5-1.6c-0.1-0.5-0.1-1-0.1-1.5l-0.1-0.2c-1.1-1.9-1.7-4.2-1-6.4
		c0.2-0.7,1.2-0.4,1,0.3c-0.6,1.8,0,3.6,0.5,4.8c0.1,0.2,0.2,0.3,0.2,0.3c0.4,0.6,1,0.4,1-0.3c0,0,0-0.2,0-0.6
		c0.5-3.6,3.1-5.7,6.9-5.9c1.4-0.1,3.5,0,5.8-0.2c3.9-0.3,7.4-1.2,10.1-2.9c3.4-3.2,5.4-7.9,5-14.3c0-0.4-0.1-0.7-0.1-1.1
		c-1.6-3.9-7-5.1-10.8-5.4c-1.2-0.1-1.9-0.1-1.9-0.1c-7.3,0.2-12.3,2.7-15.5,5.5c-2.6,2.4-3.8,5.7-4.3,9.3c-1,4.9-1.6,10.5-1.6,16.4
		c-1,0.4-1.7,1.4-1.7,3.2c0,1.5,0.5,3.1,1.3,4.6c0.6,1.1,1.1,2.9,1.1,3.9c0,3.7-2.9,5.3-3.9,9c-2.3,7.9,6.4,10.3,16.1,10.7
		c0,0.2,0,0.5,0,0.7c0,0,0,0.4,0.2,1c1.1,3.7,4.8,4.9,8.4,4.9c3.6,0,7.3-1.2,8.4-4.9c0.2-0.6,0.2-1,0.2-1c0-0.2,0-0.5,0-0.7
		C-359.3,298-350.7,295.6-353,287.7z M-370.1,299.1c-0.3,3.6-4.5,4.8-7.5,4.8c-3,0-7.2-1.3-7.5-4.8c0-2.9-0.3-5.4-1.1-8
		c1.5,0.8,3,1.5,4.5,2.2c1.7,0.9,1.8,1,4.1,1c1.2,0,2.4,0,3.5-0.7c1.5-0.9,3.1-1.6,4.6-2.3c0.2-0.1,0.4-0.2,0.7-0.4
		C-369.8,293.7-370.1,296.2-370.1,299.1z"/>
	<path fill="#A4C2DB" d="M-396.3,273.7c0.4,1.4,1.6,2,1.3,0.1c-0.1-0.7-0.2-1.1-0.3-1.4c-0.4-1.3-1-2.4-1.8-3
		c-0.6-0.4-1.2,0.4-0.6,0.8c0.5,0.4,1,1.3,1.4,2.6C-396.4,273-396.4,273.3-396.3,273.7z"/>
	<path fill="#A4C2DB" d="M-357.5,270.2c0.6-0.4,0-1.3-0.6-0.8c-0.8,0.6-1.4,1.7-1.8,3c-0.1,0.3-0.2,0.7-0.3,1.4
		c-0.3,2,0.9,1.3,1.3-0.1c0.1-0.4,0.1-0.7,0-1C-358.6,271.5-358,270.6-357.5,270.2z"/>
</g>
</svg>
