<?xml version="1.0" encoding="utf-8"?>
<!-- Generator: Adobe Illustrator 18.1.1, SVG Export Plug-In . SVG Version: 6.00 Build 0)  -->
<svg version="1.1" id="Layer_1" xmlns="http://www.w3.org/2000/svg" xmlns:xlink="http://www.w3.org/1999/xlink" x="0px" y="0px"
   viewBox="-271 193 96 96" enable-background="new -271 193 96 96" xml:space="preserve">
<path fill="#FEC77C" d="M-223,233.9c0.3,0,0.5,0.1,0.7,0.2l20.7,11.9c0.7,0.4,1,1.3,0.6,2c-0.4,0.7-1.3,1-2,0.6l-20-11.4l-20,11.4
  c-0.7,0.4-1.6,0.2-2-0.6c-0.4-0.7-0.2-1.6,0.6-2l20.7-11.9C-223.5,234-223.3,233.9-223,233.9z"/>
<path fill="#FEC77C" d="M-223,275.4c-18,0-32.6-14.6-32.6-32.6c0-18,14.6-32.6,32.6-32.6s32.6,14.6,32.6,32.6
  C-190.4,260.8-205,275.4-223,275.4z M-223,278.4c19.6,0,35.6-15.9,35.6-35.6c0-19.6-15.9-35.6-35.6-35.6s-35.6,15.9-35.6,35.6
  C-258.6,262.4-242.6,278.4-223,278.4L-223,278.4z"/>
</svg>
