<?xml version="1.0" encoding="utf-8"?>
<!-- Generator: Adobe Illustrator 18.1.1, SVG Export Plug-In . SVG Version: 6.00 Build 0)  -->
<svg version="1.1" id="Layer_1" xmlns="http://www.w3.org/2000/svg" xmlns:xlink="http://www.w3.org/1999/xlink" x="0px" y="0px"
   viewBox="-271 193 96 96" enable-background="new -271 193 96 96" xml:space="preserve">
<path fill="#FEC77C" d="M-223,251.7c-0.3,0-0.5-0.1-0.7-0.2l-20.7-11.9c-0.7-0.4-1-1.3-0.6-2c0.4-0.7,1.3-1,2-0.6l20,11.4l20-11.4
  c0.7-0.4,1.6-0.2,2,0.6c0.4,0.7,0.2,1.6-0.6,2l-20.7,11.9C-222.5,251.6-222.7,251.7-223,251.7z"/>
<path fill="#FEC77C" d="M-223,210.2c18,0,32.6,14.6,32.6,32.6c0,18-14.6,32.6-32.6,32.6s-32.6-14.6-32.6-32.6
  C-255.6,224.8-241,210.2-223,210.2z M-223,207.3c-19.6,0-35.6,15.9-35.6,35.6c0,19.6,15.9,35.6,35.6,35.6s35.6-15.9,35.6-35.6
  C-187.4,223.2-203.4,207.3-223,207.3L-223,207.3z"/>
</svg>